<svg width="419" height="519" viewBox="0 0 419 519" fill="none" xmlns="http://www.w3.org/2000/svg">
<path d="M324.5 324.582C332.5 320.082 340 315.082 346.5 309.582C363.5 293.582 373.5 272.582 373.5 249.082C373.5 225.582 363.5 204.582 346.5 188.582C340 183.082 332.5 178.082 324.5 173.582V0.0820312L0.5 173.582V345.082L324.5 518.582V324.582Z" fill="#68217A"/>
<path d="M418.5 173.582C418.5 173.582 324.5 112.582 324.5 112.582V173.582C332.5 178.082 340 183.082 346.5 188.582C363.5 204.582 373.5 225.582 373.5 249.082C373.5 272.582 363.5 293.582 346.5 309.582C340 315.082 332.5 320.082 324.5 324.582V385.582L418.5 324.582V173.582Z" fill="#512BD4"/>
</svg>
